<svg xmlns="http://www.w3.org/2000/svg" xmlns:xlink="http://www.w3.org/1999/xlink" width="245" height="120.334" viewBox="0 0 245 120.334"><defs><linearGradient id="a" x1="0.5" x2="0.5" y2="1" gradientUnits="objectBoundingBox"><stop offset="0" stop-color="#0057ff"/><stop offset="1" stop-color="#0656ec"/></linearGradient></defs><g transform="translate(0 0)"><g transform="translate(0 0)"><path d="M47.29,61.877C37.6,95.257,20.2,110.331,11.879,115.9L5.1,111.987A10.2,10.2,0,0,1,0,103.143V77.7a9.909,9.909,0,0,1,.483-3.088h0A10.151,10.151,0,0,1,5.1,68.859l5.111-2.945L27.141,56.14a10.2,10.2,0,0,1,10.214,0Z" transform="translate(0 -5.743)" fill="url(#a)"/><path d="M67.394,78.853v25.44a10.214,10.214,0,0,1-5.111,8.844l-22.029,12.72a10.2,10.2,0,0,1-10.214,0l-2.39-1.379C42.867,112.206,50.771,88.117,54.871,65.73l2.309,1.334,5.1,2.945A10.151,10.151,0,0,1,66.9,75.756h0A9.909,9.909,0,0,1,67.394,78.853Z" transform="translate(-2.899 -6.892)" fill="url(#a)"/><path d="M70.717,51.35V62.71l-3.8-2.2h0l-7.573-4.4c.9-5.666,1.495-11.118,1.951-16.113l4.315,2.488a10.2,10.2,0,0,1,5.111,8.862Z" transform="translate(-6.222 -4.194)" fill="#3a7eff"/><path d="M52.043,36.916a154.682,154.682,0,0,1-3.008,15.522L37.354,45.689a10.2,10.2,0,0,0-10.214,0L3.8,59.161,0,61.354V49.994a10.2,10.2,0,0,1,5.1-8.835L27.141,28.43a10.249,10.249,0,0,1,10.214,0Z" transform="translate(0 -2.838)" fill="#3a7eff"/><path d="M54.1,11.037q-.322,8.817-1.235,16.712L37.354,18.8a10.2,10.2,0,0,0-10.214,0L0,34.445V22.933a10.2,10.2,0,0,1,5.1-8.844L27.141,1.37a10.2,10.2,0,0,1,10.214,0Z" transform="translate(0 0)" fill="#8fb5ff"/><path d="M71.009,24.375V35.887L62.12,30.758c.528-7.474.68-13.481.707-17.008l3.07,1.79A10.214,10.214,0,0,1,71.009,24.375Z" transform="translate(-6.514 -1.442)" fill="#8fb5ff"/><path d="M98.85,42.9V20.06h4.476V42.9Z" transform="translate(-10.365 -2.103)" fill="#1a1a1a"/><path d="M112.788,43.673H108.5V27.82h4.162v1.96a5.272,5.272,0,0,1,4.574-2.381c3.93,0,5.729,2.8,5.729,6.266V43.673h-4.279V34.427c0-1.79-.9-3.16-2.936-3.16a2.982,2.982,0,0,0-2.963,3.285Z" transform="translate(-11.377 -2.873)" fill="#1a1a1a"/><path d="M133.569,25.227v1.746h3.581v3.7h-3.581V42.825h-4.324V30.669H126.56V27h2.685v-1.79c0-3.581,2.256-5.9,5.774-5.9a6.266,6.266,0,0,1,2.121.322v3.581a4.476,4.476,0,0,0-1.352-.161,2.014,2.014,0,0,0-2.22,2.175Z" transform="translate(-13.271 -2.024)" fill="#1a1a1a"/><path d="M155.512,35.714a8.316,8.316,0,1,1-16.623,0,8.316,8.316,0,1,1,16.623,0Zm-4.288,0c0-3-1.934-4.476-4.028-4.476s-4.028,1.513-4.028,4.476S145.1,40.19,147.2,40.19,151.225,38.713,151.225,35.714Z" transform="translate(-14.563 -2.844)" fill="#1a1a1a"/><path d="M170.047,32.106a6.373,6.373,0,0,0-1.289-.134c-2.193,0-4.091,1.065-4.091,4.476V43.7H160.38V27.854h4.136v2.354a4.705,4.705,0,0,1,4.476-2.488,8.8,8.8,0,0,1,1,.072Z" transform="translate(-16.817 -2.907)" fill="#1a1a1a"/><path d="M173.7,43.665V27.812h4.091v1.907a5.443,5.443,0,0,1,4.637-2.39,4.923,4.923,0,0,1,4.708,2.641,5.514,5.514,0,0,1,5.022-2.641c2.936,0,5.738,1.79,5.738,6.024V43.665h-4.153V34.257c0-1.71-.841-3-2.8-3A2.909,2.909,0,0,0,188,34.382v9.283h-4.252V34.257c0-1.71-.9-3-2.8-3a2.9,2.9,0,0,0-2.963,3.124v9.283Z" transform="translate(-18.214 -2.864)" fill="#1a1a1a"/><path d="M208.384,34.545l3.9-.582c.9-.125,1.191-.582,1.191-1.128,0-1.128-.9-2.059-2.685-2.059a2.8,2.8,0,0,0-3.026,2.578l-3.8-.806c.26-2.48,2.542-5.219,6.794-5.219,5.031,0,6.9,2.838,6.9,6.024v7.8a18.94,18.94,0,0,0,.188,2.515h-3.93a10.611,10.611,0,0,1-.161-1.907,5.281,5.281,0,0,1-4.673,2.354c-3.384,0-5.442-2.283-5.442-4.771C203.649,36.514,205.753,34.93,208.384,34.545Zm5.093,2.685v-.707l-3.581.546a2.005,2.005,0,0,0-1.96,2.005A1.853,1.853,0,0,0,210,40.909c1.808.018,3.482-.85,3.482-3.661Z" transform="translate(-21.353 -2.866)" fill="#1a1a1a"/><path d="M228.226,27.315h3.2v3.8h-3.2v6.642c0,1.387.645,1.79,1.871,1.79a6.392,6.392,0,0,0,1.325-.125V43a6.373,6.373,0,0,1-2.417.385c-3.1,0-5.031-1.79-5.031-4.9V31.111H221.11v-3.8h.806a2.283,2.283,0,0,0,2.444-2.515V22.58h3.867Z" transform="translate(-23.185 -2.368)" fill="#1a1a1a"/><path d="M237.9,19.08a2.685,2.685,0,1,1-2.685,2.685A2.685,2.685,0,0,1,237.9,19.08ZM235.765,42.8V26.948h4.288V42.8Z" transform="translate(-24.664 -2.001)" fill="#1a1a1a"/><path d="M247.818,35.735c0,2.873,1.871,4.476,4.064,4.476a3.634,3.634,0,0,0,3.643-2.685l3.769,1.253a7.367,7.367,0,0,1-7.412,5.371,8.2,8.2,0,0,1-8.343-8.414,8.11,8.11,0,0,1,8.208-8.405A7.265,7.265,0,0,1,259.2,32.7l-3.831,1.289a3.473,3.473,0,0,0-3.518-2.685C249.662,31.286,247.818,32.871,247.818,35.735Z" transform="translate(-25.537 -2.866)" fill="#1a1a1a"/><path d="M109.211,59.276V77.9h-4.476V59.276H97.52V55.06h18.905v4.216Z" transform="translate(-10.226 -5.773)" fill="#1a1a1a"/><path d="M127.988,67.106a6.374,6.374,0,0,0-1.289-.134c-2.193,0-4.091,1.065-4.091,4.476V78.7H118.32V62.854h4.189v2.354a4.7,4.7,0,0,1,4.476-2.488,8.79,8.79,0,0,1,.994.072Z" transform="translate(-12.407 -6.577)" fill="#1a1a1a"/><path d="M135.444,69.545l3.9-.582c.9-.125,1.191-.582,1.191-1.128,0-1.128-.9-2.059-2.685-2.059a2.8,2.8,0,0,0-3.026,2.578l-3.8-.806c.26-2.48,2.542-5.219,6.8-5.219,5.022,0,6.893,2.838,6.893,6.024v7.8a18.943,18.943,0,0,0,.188,2.515h-3.93a10.606,10.606,0,0,1-.161-1.907,5.281,5.281,0,0,1-4.673,2.354c-3.384,0-5.442-2.283-5.442-4.771C130.673,71.514,132.759,69.93,135.444,69.545Zm5.093,2.685v-.707l-3.581.546A2.005,2.005,0,0,0,135,74.074a1.853,1.853,0,0,0,2.059,1.79c1.772.063,3.446-.806,3.446-3.616Z" transform="translate(-13.705 -6.536)" fill="#1a1a1a"/><path d="M152.355,54.08a2.685,2.685,0,1,1-2.685,2.685,2.685,2.685,0,0,1,2.685-2.685ZM150.225,77.8V61.948h4.288V77.8Z" transform="translate(-15.694 -5.671)" fill="#1a1a1a"/><path d="M163.609,78.673H159.33V62.82h4.18v1.96a5.272,5.272,0,0,1,4.574-2.381c3.93,0,5.738,2.8,5.738,6.266V78.673h-4.315V69.427c0-1.79-.9-3.16-2.936-3.16a2.987,2.987,0,0,0-2.963,3.285Z" transform="translate(-16.707 -6.543)" fill="#1a1a1a"/><path d="M181.545,54.08a2.685,2.685,0,1,1-2.685,2.685,2.685,2.685,0,0,1,2.685-2.685ZM179.424,77.8V61.948H183.7V77.8Z" transform="translate(-18.755 -5.671)" fill="#1a1a1a"/><path d="M192.808,78.673H188.52V62.82h4.153v1.96a5.29,5.29,0,0,1,4.583-2.381c3.93,0,5.729,2.8,5.729,6.266V78.673h-4.279V69.427c0-1.79-.9-3.16-2.936-3.16a2.982,2.982,0,0,0-2.963,3.285Z" transform="translate(-19.768 -6.543)" fill="#1a1a1a"/><path d="M211.283,78.527a3.581,3.581,0,0,0,3.706,2.99c2.685,0,4.225-1.352,4.225-4.413V75.949a5.049,5.049,0,0,1-4.422,2.032,7.343,7.343,0,0,1-7.376-7.707,7.436,7.436,0,0,1,7.376-7.734c2.515,0,3.965,1.1,4.476,2.166V62.835h4.127V76.979c0,4.35-3.249,8.316-9.211,8.316-4.341,0-6.347-2.685-6.8-5.738Zm7.994-8.253a3.777,3.777,0,1,0-3.742,4.028,3.686,3.686,0,0,0,3.742-4.028Z" transform="translate(-21.746 -6.558)" fill="#1a1a1a"/><path d="M97.339,101.434A11.529,11.529,0,0,1,108.976,89.52c6.266,0,9.569,3.867,10.473,7.573l-4.189,1.316a5.978,5.978,0,0,0-6.266-4.61c-3.419,0-7.027,2.453-7.027,7.636,0,4.87,3.419,7.546,7.09,7.546a6.347,6.347,0,0,0,6.409-4.673l4.162,1.253a10.416,10.416,0,0,1-10.572,7.77C102.647,113.331,97.339,108.748,97.339,101.434Z" transform="translate(-10.206 -9.387)" fill="#1a1a1a"/><path d="M138.6,109.119a7.161,7.161,0,0,1-7.224,5.031,8.423,8.423,0,0,1-.385-16.82c4.9,0,7.832,3.124,7.832,8.217,0,.609-.063,1.253-.063,1.316H127.415a3.849,3.849,0,0,0,3.992,3.581,3.491,3.491,0,0,0,3.581-2.417Zm-4-5.183c-.063-1.584-1.092-3.133-3.581-3.133a3.437,3.437,0,0,0-3.581,3.133Z" transform="translate(-12.918 -10.206)" fill="#1a1a1a"/><path d="M147.849,113.673H143.57V97.82h4.153v1.96A5.272,5.272,0,0,1,152.3,97.4c3.93,0,5.738,2.8,5.738,6.266v9.99h-4.288v-9.229c0-1.79-.9-3.16-2.927-3.16a2.989,2.989,0,0,0-2.972,3.285Z" transform="translate(-15.055 -10.213)" fill="#1a1a1a"/><path d="M168.8,97.315h3.187v3.8H168.8v6.642c0,1.387.645,1.79,1.871,1.79a6.355,6.355,0,0,0,1.316-.125V113a6.337,6.337,0,0,1-2.417.385c-3.088,0-5.022-1.79-5.022-4.9V101.1H161.67V97.315h.806a2.283,2.283,0,0,0,2.453-2.515V92.58H168.8Z" transform="translate(-16.952 -9.708)" fill="#1a1a1a"/><path d="M190.286,109.119a7.161,7.161,0,0,1-7.215,5.031,8.028,8.028,0,0,1-8.182-8.477c0-5.058,3.733-8.343,7.8-8.343,4.9,0,7.824,3.124,7.824,8.217,0,.609-.063,1.253-.063,1.316H179.106a3.867,3.867,0,0,0,4,3.581,3.5,3.5,0,0,0,3.581-2.417Zm-3.992-5.183c-.063-1.584-1.1-3.133-3.581-3.133a3.437,3.437,0,0,0-3.581,3.133Z" transform="translate(-18.339 -10.206)" fill="#1a1a1a"/><path d="M204.928,102.106a6.373,6.373,0,0,0-1.289-.134c-2.193,0-4.091,1.065-4.091,4.476V113.7H195.26V97.854h4.162v2.354A4.69,4.69,0,0,1,203.9,97.72a8.8,8.8,0,0,1,1,.072Z" transform="translate(-20.475 -10.247)" fill="#1a1a1a"/><g transform="translate(236 15)" fill="none"><path d="M4.5,0A4.5,4.5,0,1,1,0,4.5,4.5,4.5,0,0,1,4.5,0Z" stroke="none"/><path d="M 4.5 1 C 2.570089817047119 1 1 2.570089817047119 1 4.5 C 1 6.429909706115723 2.570089817047119 8 4.5 8 C 6.429909706115723 8 8 6.429909706115723 8 4.5 C 8 2.570089817047119 6.429909706115723 1 4.5 1 M 4.5 0 C 6.98528003692627 0 9 2.01471996307373 9 4.5 C 9 6.98528003692627 6.98528003692627 9 4.5 9 C 2.01471996307373 9 0 6.98528003692627 0 4.5 C 0 2.01471996307373 2.01471996307373 0 4.5 0 Z" stroke="none" fill="#1a1a1a"/></g><path d="M267.42,28.1H266.4V22.731h1.862a1.728,1.728,0,0,1,1.79,1.692,1.665,1.665,0,0,1-1.182,1.593l1.244,2.086h-1.164l-1.128-2.014h-.4V28.1Zm.7-2.9c.6,0,.94-.3.94-.8s-.34-.815-.94-.815h-.7V25.2Z" transform="translate(-27.399 -5.73)" fill="#1a1a1a"/></g></g></svg>